<?xml version="1.0" encoding="UTF-8"?>
<!DOCTYPE svg PUBLIC "-//W3C//DTD SVG 1.1//EN" "http://www.w3.org/Graphics/SVG/1.1/DTD/svg11.dtd">
<svg version="1.1" id="badestelle-icon" role="img" aria-labelledby="title desc" xmlns="http://www.w3.org/2000/svg" xmlns:xlink="http://www.w3.org/1999/xlink" viewBox="0 0 19 19" preserveAspectRatio="xMidYMid meet" style="enable-background:new 0 0 19 19;" xml:space="preserve">
<title id="title">Badestelle</title>
<desc id="desc">An diesem Platz gibt es eine Badestelle.</desc>
<style type="text/css">
<![CDATA[
	.icon{fill-rule:evenodd;clip-rule:evenodd;fill:#FAFAFA;}
	.background{fill-rule:evenodd;clip-rule:evenodd;fill:#009682;}
]]>
</style>
<rect role="presentation" id="background" class="background" x="0" y="0" rx="3" ry="3" width="19" height="19"/>
<g role="presentation" id="icon-schwimmer">
    <path role="presentation" class="icon" d="M6.61,16.48c-0.03,0-0.07,0-0.1,0c-0.58-0.03-1.13-0.34-1.63-0.92c-0.23-0.27-0.48-0.41-0.75-0.42         c-0.55-0.04-1.09,0.45-1.09,0.45c-0.23,0.22-0.6,0.21-0.81-0.03c-0.22-0.23-0.21-0.6,0.03-0.81c0.09-0.08,0.91-0.82,1.94-0.76         c0.58,0.03,1.12,0.31,1.56,0.82c0.29,0.33,0.56,0.51,0.82,0.53c0.29-0.01,0.66-0.18,1.08-0.57c1.1-1.02,2.16-1.03,3.45-0.05         c0.97,0.74,1.09,0.7,2.09,0c1.23-0.86,2.25-1.15,3.54,0.05c0.23,0.22,0.25,0.58,0.03,0.81c-0.22,0.23-0.58,0.25-0.81,0.03         c-0.68-0.62-1.04-0.69-2.1,0.05c-1.34,0.93-2.03,1.05-3.45-0.03c-0.93-0.71-1.38-0.57-1.97-0.02C7.8,16.19,7.21,16.48,6.61,16.48z          M8.44,13.01c0.59-0.55,1.04-0.69,1.97,0.02c1.42,1.08,2.11,0.96,3.45,0.03c1.07-0.75,1.43-0.67,2.1-0.05         c0.23,0.22,0.6,0.2,0.81-0.03c0.22-0.23,0.2-0.6-0.03-0.81c-1.29-1.2-2.31-0.91-3.54-0.05c-1,0.7-1.12,0.74-2.09,0         c-1.29-0.98-2.35-0.97-3.45,0.05c-0.43,0.4-0.79,0.57-1.08,0.57c-0.25-0.01-0.53-0.19-0.82-0.53c-0.44-0.5-0.97-0.79-1.56-0.82         c-1.04-0.05-1.85,0.68-1.94,0.76c-0.23,0.22-0.24,0.58-0.03,0.81c0.22,0.23,0.58,0.24,0.81,0.03c0,0,0.54-0.45,1.09-0.45         c0.27,0.01,0.52,0.15,0.75,0.42c0.5,0.58,1.05,0.89,1.63,0.92c0.03,0,0.07,0,0.1,0C7.21,13.89,7.8,13.6,8.44,13.01z"/>
    <path role="presentation" class="icon" d="M7.29,6.76c0,0.68-0.55,1.23-1.23,1.23c-0.68,0-1.22-0.55-1.22-1.23c0-0.68,0.55-1.23,1.22-1.23         C6.74,5.54,7.29,6.09,7.29,6.76z M7.56,10.4l1.71-3.36l4.48-3.44c0.28-0.21,0.33-0.61,0.12-0.89c-0.22-0.28-0.62-0.33-0.89-0.12         L8.38,6.12C8.3,6.18,8.24,6.25,8.2,6.34L6.42,9.83c-0.16,0.31-0.03,0.7,0.28,0.86c0.09,0.05,0.19,0.07,0.29,0.07         C7.22,10.75,7.44,10.63,7.56,10.4z"/>
</g>
</svg>