<?xml version="1.0" encoding="UTF-8"?>
<!DOCTYPE svg PUBLIC "-//W3C//DTD SVG 1.1//EN" "http://www.w3.org/Graphics/SVG/1.1/DTD/svg11.dtd">
<svg version="1.1" id="brunnen-icon" role="img" aria-labelledby="title desc" xmlns="http://www.w3.org/2000/svg" xmlns:xlink="http://www.w3.org/1999/xlink" viewBox="0 0 19 19" preserveAspectRatio="xMidYMid meet" style="enable-background:new 0 0 19 19;" xml:space="preserve">
<title id="title">Brunnen</title>
<desc id="desc">An diesem Platz befindet sich ein Brunnen.</desc>
<style type="text/css">
<![CDATA[
	.background{fill-rule:evenodd;clip-rule:evenodd;fill:#A02800;}
	.icon{fill-rule:evenodd;clip-rule:evenodd;fill:none;stroke:#FFFFFF;stroke-linecap:round;stroke-linejoin:round;}
]]>
</style>
<rect role="presentation" id="background" class="background" x="0" y="0" rx="3" ry="3" width="19" height="19"/>
<path role="presentation" id="icon-brunnen" class="icon" d="M2.8,12.9c0-1.9,3-3.4,6.8-3.4s6.8,1.5,6.8,3.4s-3,3.4-6.8,3.4S2.8,14.7,2.8,12.9z M15.4,6.2  c0,0-0.2-2.2-0.8-2.9c-0.7-0.7-2.3-1-3.4,1c-1.1,1.9-1.7,8.6-1.7,8.6 M9.5,12.9c0,0-0.6-6.7-1.7-8.6c-1.1-1.9-2.7-1.7-3.4-1  C3.8,4,3.6,6.2,3.6,6.2"/>
</svg>