<?xml version="1.0" encoding="UTF-8"?>
<!DOCTYPE svg PUBLIC "-//W3C//DTD SVG 1.1//EN" "http://www.w3.org/Graphics/SVG/1.1/DTD/svg11.dtd">
<svg version="1.1" id="parkanlage-icon" role="img" aria-labelledby="title desc" xmlns="http://www.w3.org/2000/svg" xmlns:xlink="http://www.w3.org/1999/xlink" viewBox="0 0 19 19" preserveAspectRatio="xMidYMid meet" style="enable-background:new 0 0 19 19;" xml:space="preserve">
<title id="title">Parkanlage</title>
<desc id="desc">An diesem Platz befindet sich eine Parkanlage.</desc>
<style type="text/css">
<![CDATA[
    .background{fill:#F0FAE6;stroke:#148D49;stroke-width:1;}
	.icon{fill-rule:evenodd;clip-rule:evenodd;fill:#148D49;}
]]>
</style>
<rect role="presentation" id="background" class="background" x="0" y="0" rx="3" ry="3" width="19" height="19"/>
<path role="presentation" class="icon" d="M10.1,2.9L10.1,2.9l0.1-0.1l0.1,0l0.1,0l0.1-0.1l0.1-0.1l0.1,0h0.1l0,0l0.1,0h0.1H11l0,0h0l0.1,0h0h0.1l0.1,0  l0.1,0.1l0.1,0l0,0l0.1,0l0.1,0.1l0.1,0.1l0,0l0.1,0L12,3l0.1,0l0.1,0.1l0.2,0.2l0.3,0.3l0.2,0.3L13,4.1l0.2,0.2l0.2,0.3l0.1,0.2  l0.1,0.3l0.1,0.3l0.1,0.3l0.1,0.4l0,0.3l0,0.5V7l0,0.1l0,0l0,0.1l0,0.1v0.1l-0.1,0.3l-0.1,0.6l-0.2,0.5l-0.2,0.4l-0.2,0.4L12.9,10  l-0.1,0.1l-0.1,0.1l-0.1,0.2l-0.1,0.1l-0.1,0l-0.1,0.1l-0.1,0.1l0,0l-0.1,0.1l-0.1,0l-0.1,0.1l0,0.1l0,0.1l0,0l-0.1,0.1l0,0l0,0.1  l0,0.1l-0.1,0.1l-0.1,0.1l0.3-0.1l0.3-0.1l0.3-0.1l0.5-0.1l0.3,0l0.3,0l0.4,0l0.3,0.1l0.2,0.1l0.3,0.1l0.3,0.2l0.2,0.2L16,12  l0.2,0.2l0.2,0.3l0.1,0.3l0,0.3l0,0.3l-0.1,0.4l-0.1,0.4L16,14.4l-0.2,0.3L15.6,15l-0.3,0.3L15,15.6l-0.3,0.2L14.4,16L14,16.1  l-0.5,0.1l-0.3,0.1h-0.2h-0.3l-0.2,0l-0.2-0.1l-0.2-0.1l-0.1,0L11.9,16L11.7,16l-0.1-0.1l0-0.1l0-0.1l0,0l0,0v0l0,0l0.1,0l0,0l0,0  l0,0.1l0,0l0,0l0.1,0l0.1,0l0.1,0l0.1,0.1l0,0.1l0,0.1l0.1,0.1l0.1,0.1l0.1,0l0.2,0l0.2,0L13,16l0.3-0.1l0.4-0.3l0.4-0.3l0.3-0.3  l0.2-0.3l0.1-0.3l0.1-0.3l0.1-0.3l0-0.2l0-0.2l0-0.2l-0.1-0.2l-0.1-0.2l-0.2-0.2l-0.2-0.2l-0.1-0.1L14,12.1l-0.2-0.1l-0.2,0h-0.2  l-0.2,0l-0.3,0.1l-0.1,0.1l-0.1,0.1l-0.1,0.1l0,0.1v0.1l0,0.1l0,0l0,0l0.1,0l0,0.1v0l-0.1,0.1l-0.1,0l-0.1,0.1l-0.2,0.1l-0.2,0  l-0.2,0l-0.2,0l-0.1,0l-0.1,0l-0.1-0.1l-0.1,0l-0.1,0l-0.1,0l-0.1,0l-0.1-0.1l-0.1-0.1l0-0.1v-0.1l0.1-0.1l0.1-0.1l0.1-0.1L11,12  l0.2-0.1l0.2-0.1l0.1-0.1l0.1-0.1l0.2-0.4l0.3-0.7l0.2-0.7l0.1-0.5l0.1-0.6l0.1-0.5l0-0.5V7.2l0-0.4l-0.1-0.6l-0.1-0.6l-0.2-0.5  L12,4.6l-0.1-0.3L11.7,4l-0.2-0.3l-0.1-0.2l-0.2-0.2L11,3.2l-0.2-0.1l-0.1-0.1L10.6,3L10.5,3h-0.1l0,0l-0.1-0.1L10.1,2.9z M11.4,6.1  l-0.2-0.3l-0.2-0.2l-0.2-0.2l-0.2-0.1l-0.2-0.1l-0.3-0.1l-0.3,0l-0.3,0L9.4,5.4L9.3,5.5L9.2,5.7l0,0.2l0,0.3l0.1,0.2l0.1,0.3  l0.2,0.3l0.2,0.2l0.3,0.2l0.3,0.1l0.4,0.1l0.3,0l0.3,0l-0.1-0.1l-0.1-0.1l-0.1-0.2L11,7.1l0-0.2l0-0.2l0.1-0.2l0.1-0.1l0.1-0.1  L11.4,6.1z M10.2,2L10.2,2l0.1-0.2l0-0.1l0-0.1l0-0.1l0-0.1l0-0.1l0-0.1l0-0.1l0,0l0,0l-0.1,0H10l-0.2,0l-0.1,0L9.5,1L9.3,1H9.1  l-0.3,0l-0.2,0L8.4,1.2L8.2,1.2L8.1,1.4L8,1.4L7.8,1.5l-0.1,0l-0.1,0L7.4,1.6L7.3,1.7L7.3,1.8l0,0.1L7.2,2L7.1,2.1L7,2.2l0,0l0,0.1  l0,0.1L6.7,2.7L6.5,3L6.2,3.5L6,3.8L5.8,4L5.6,4.4L5.5,4.6L5.3,5.1L5.2,5.6L5,6.1L5,6.5L4.9,6.9L4.9,7.4l0,0.4l0,0.5l0,0.4l0,0.4  L5,9.6L5,9.9l0.1,0.4l0.1,0.5l0.2,0.6l0.2,0.4L6,12.5l0.3,0.4l0.5,0.6l0.4,0.4l0.6,0.4l0.4,0.3l0.4,0.2L9.1,15l0.4,0.1l0.3,0.1  l0.1,0l0.2,0l0.2,0l0.2,0l0.1,0l-0.3-0.1l-0.2-0.1L9.9,15L9.7,15l-0.3-0.1L9,14.6l-0.3-0.2l-0.3-0.2L8.1,14l-0.2-0.2l-0.2-0.2  l-0.1-0.1l0,0v0l0,0.1l0.1,0.1l0,0.1l0,0.1l0,0l0,0H7.6l0,0l-0.1-0.1l-0.1-0.1l-0.2-0.1l-0.1-0.2l-0.2-0.2l-0.2-0.2l-0.1-0.1l0-0.1  l0-0.1l0,0l0,0l0-0.1l0,0l0-0.1l0-0.1l0,0l0-0.1l0,0v0l0,0l0.1,0l0.1,0l0,0.1l0,0.1l0,0.1l0,0l0,0l0.1,0.1l0,0l0,0.1l0,0.1l0,0l0,0  l0,0v0l-0.1-0.1l-0.1-0.2l-0.2-0.4l-0.1-0.4l-0.1-0.4l-0.2-0.7L6.2,10l0-0.3l0-0.4l0-0.4l0-0.4l0-0.4l0.1-0.6L6.2,7l0.1-0.5l0.1-0.4  l0.2-0.5l0.2-0.4l0.2-0.5l0.1-0.3l0.3-0.6L8,3.2l0.4-0.4l0.4-0.3l0.3-0.3L9.4,2l0.2-0.1l0.1,0l0.1,0l0.1,0l0.1,0l0.1,0l0,0l0,0.1  l0,0L10.2,2L10.2,2z M5.5,3.6l0.3-0.3l0.3-0.4l0-0.1l0.1-0.2l0.1-0.3l0-0.2L6.3,1.9L6.2,1.6L6,1.5l-0.2,0l-0.2,0l-0.2,0L5.1,1.6  L4.8,1.7L4.6,1.8L4.3,2L4.2,2.1L4,2.3L3.9,2.4L3.8,2.5l0,0.1l0,0.2L3.7,3L3.7,3.3L3.6,3.6L3.4,4.2L3.4,4.6L3.3,5l0,0.6l0,0.6l0,0.6  l0,0.6L3.4,8l0.1,0.3l0.1,0.5l0.2,0.6l0.3,0.7l0.3,0.5l0.2,0.3l0.3,0.3L5,11.3l0.1,0l0,0l0,0l0,0l0,0l-0.1,0L5,11.2L4.9,11l-0.1-0.2  l-0.1-0.2l-0.1-0.4L4.4,9.9L4.2,9.4L4.1,8.7L4,8.2l0-0.4l0-0.4l0-0.6L4,6.2l0.1-0.5l0.2-0.7l0.1-0.5l0.2-0.5l0.1-0.3l0.2-0.1l0.2,0  l0.2,0l0.1,0l0.1,0l0,0L5.5,3.6L5.5,3.6z M2.9,13.1L2.9,13.1l0.2,0.1l0.2,0.1l0.3,0.1l0.3,0.2l0.2,0.2l0.2,0.1L4.5,14l0.1,0.1  l0.2,0.1L5,14.4l0.1,0.1l0,0l0,0l0,0l0,0l0,0.1l0,0l0,0.1l0,0l0,0l0,0.1v0l0,0.1l0,0l0.1,0.1l0.1,0.1l0,0.1l0,0.1l0,0.1l0.1,0.1  L6,15.8l0.5,0.3l0.7,0.3l0.6,0.2l0.8,0.3l0.8,0.3l0.8,0.2l0.4,0.1l0.6,0.1l0.4,0l0.4,0l0.4,0l0.5,0l0.3,0l0.1,0l0.1,0l0.1,0l0.1,0  l0.2,0l0.1,0l0.2,0l0.2,0l0.3,0h0.5h0.3l0.4-0.1l0.3,0l0.5,0h0.5l0.2,0l0.1-0.1l-0.1,0h-0.4l-0.7-0.1l-0.9-0.1l-1-0.1L13.1,17  l-0.8-0.2l-1.2-0.3l-1-0.3l-0.9-0.3l-1-0.4L6.9,15l-1.2-0.5l-0.3-0.1L4.9,14l-0.5-0.3l-0.4-0.2l-0.2-0.1l-0.2-0.1l-0.2-0.1l-0.3-0.3  L3,12.7l-0.2-0.1l-0.1-0.1l-0.2,0H2.4l-0.1,0l-0.1,0.1l-0.1,0.1l0,0.1l0,0.1l0,0.2l0.1,0.1l0.1,0.1l0.1,0.1l0.1,0h0.1l0.1,0l0.1-0.1  l0-0.1l0-0.1L2.9,13.1L2.9,13.1L2.9,13.1z"/>
</svg>